<svg width="884" height="320" viewBox="0 0 884 320" fill="none" xmlns="http://www.w3.org/2000/svg">
<rect width="884" height="320" fill="#1C1C1C"/>
<path fill-rule="evenodd" clip-rule="evenodd" d="M754.033 96.2436C790.371 94.0324 821.659 120.902 823.876 156.226C826.097 191.549 798.408 221.921 762.066 224.027C725.801 226.128 694.635 199.283 692.422 164.034C690.206 128.785 717.776 98.4504 754.033 96.2436ZM791.445 156.848C789.64 138.857 773.126 125.725 754.627 127.564C736.245 129.391 722.84 145.317 724.635 163.194C726.435 181.07 742.759 194.173 761.155 192.507C779.673 190.83 793.254 174.839 791.445 156.848Z" fill="#06B9E6"/>
<path d="M444.793 96.2095C450.89 95.8455 455.754 96.12 461.792 97.3261C479.1 100.728 494.304 110.689 504.037 125.009C508.362 131.285 511.453 138.284 513.158 145.653C516.712 161.719 513.774 181.461 514.867 198.026C515.393 205.986 515.429 215.435 507.727 220.186C503.865 222.602 499.155 223.37 494.694 222.313C481.725 219.224 482.482 207.379 482.523 197.27L482.641 173.204C482.672 167.132 483.03 160.849 481.988 154.863C479.313 139.541 468.95 131.153 454.113 127.653C451.149 127.243 448.139 127.192 445.16 127.501C430.106 129.184 418.336 140.379 415.88 154.831C414.783 161.291 415.088 168.128 415.104 174.678L415.183 197.949C415.213 204.901 415.905 211.96 411.145 217.809C405.589 224.635 394.897 223.997 388.417 218.834C385.018 216.126 383.529 211.206 383.35 207.023C382.985 198.527 383.475 189.946 383.306 181.438C383.009 157.043 381.489 138.016 399.259 118.048C411.068 104.778 426.842 97.564 444.793 96.2095Z" fill="#06B9E6"/>
<path d="M297.607 192.29C312.245 188.911 321.781 180.221 324.674 165.437C325.625 160.574 325.339 152.856 325.317 147.658L325.155 122.791C325.11 115.292 324.369 107.861 330.04 101.826C337.948 92.9447 354.833 97.7394 356.792 109.117C358.02 116.242 357.522 125.041 357.516 132.412L357.456 171.895L357.417 244.386C357.532 249.966 357.966 255.854 356.71 261.368C354.77 269.884 345.145 274.893 336.622 272.326C321.685 267.828 327.659 251.845 320.683 241.048C314.666 231.736 309.557 228.025 298.678 224.923C276.032 222.495 267.855 222.825 248.819 208.544C255.238 202.31 265.405 197.497 274.03 194.959C277.158 194.039 282.211 193.953 284.511 192.121C290.162 192.843 292.025 193.04 297.607 192.29Z" fill="#208FE4"/>
<path d="M297.607 192.29C312.245 188.911 321.781 180.221 324.674 165.437C325.625 160.574 325.339 152.856 325.316 147.658L325.155 122.791C325.11 115.292 324.369 107.861 330.04 101.826C337.947 92.9447 354.832 97.7394 356.792 109.117C358.019 116.242 357.522 125.041 357.516 132.412L357.455 171.895C354.535 185.481 344.847 199.752 334.526 209.044C327.787 202.967 319.727 198.443 310.943 195.807C307.396 194.746 299.618 193.905 297.607 192.29Z" fill="#06B9E6"/>
<path d="M298.678 224.923C301.21 223.196 307.308 222.516 310.726 221.444C320.188 218.479 326.801 215.016 334.468 209.055C345.587 218.5 351.01 228.579 355.418 241.994C355.802 243.162 356.119 244.135 357.417 244.386C357.532 249.966 357.966 255.854 356.71 261.369C354.77 269.885 345.145 274.893 336.622 272.327C321.685 267.829 327.66 251.846 320.684 241.049C314.667 231.737 309.557 228.025 298.678 224.923Z" fill="#5466CD"/>
<path d="M540.991 76.5026C540.914 68.4091 539.101 57.9212 545.375 51.8424C551.775 45.6455 561.821 45.2331 568.326 51.5516C573.476 56.5463 572.755 63.7959 574.151 70.17C577.547 83.8689 587.084 91.9029 600.611 95.4986C620.022 96.7496 634.302 98.6039 649.783 111.875C638.876 119.78 630.458 124.199 616.886 126.221C615.471 126.432 613.934 126.717 612.896 127.728C609.22 127.144 605.04 127.381 601.35 127.634C591.191 130.213 583.304 134.312 577.819 143.404C575.783 146.797 574.378 150.517 573.68 154.389C571.273 167.17 573.607 184.145 572.923 197.366C572.66 202.456 573.644 207.825 571.731 212.794C565.429 228.978 541.635 224.562 541.059 207.659C540.792 199.824 540.873 192.206 540.882 184.473C540.851 171.919 540.905 159.367 541.045 146.814C540.542 124.563 540.674 98.729 540.991 76.5026Z" fill="#208FE4"/>
<path d="M563.815 110.929C571.431 117.928 580.615 122.541 590.824 124.989C593.526 125.636 599.287 126.356 601.35 127.633C591.191 130.213 583.304 134.311 577.818 143.403C575.783 146.797 574.378 150.517 573.68 154.389C571.272 167.17 573.607 184.145 572.922 197.366C572.66 202.456 573.643 207.824 571.73 212.794C565.429 228.978 541.634 224.562 541.059 207.659C540.791 199.824 540.873 192.206 540.882 184.473C540.85 171.919 540.905 159.366 541.045 146.814C542.233 144.554 544.799 137.894 545.914 135.275C550.719 124.003 555.053 118.995 563.815 110.929Z" fill="#06B9E6"/>
<path d="M540.991 76.5026C540.914 68.4091 539.101 57.9212 545.375 51.8424C551.775 45.6455 561.821 45.2331 568.326 51.5516C573.476 56.5463 572.755 63.7959 574.151 70.17C577.547 83.8689 587.084 91.9029 600.611 95.4986C597.334 96.628 593.698 96.9594 590.276 97.7503C580.502 99.9708 571.44 104.498 563.893 110.932C557.084 104.561 553.176 100.346 548.439 92.1845C546.172 88.2799 543.421 78.7953 540.991 76.5026Z" fill="#5466CD"/>
<path d="M248.82 208.545C239.181 200.871 230.163 186.936 227.54 175.058C226.684 171.129 226.14 167.141 225.913 163.131C225.374 154.64 225.477 144.751 225.659 135.934C225.844 127.035 223.673 111.458 228.767 103.917C232.41 98.523 239.609 95.8619 246.019 97.7972C259.014 101.72 258.199 112.486 258.147 123.077L258.024 148.605C258.015 153.601 257.796 160.847 258.61 165.593C259.234 169.173 260.467 172.626 262.26 175.81C267.204 184.59 274.86 189.373 284.511 192.122C282.211 193.954 277.158 194.04 274.03 194.96C265.405 197.498 255.239 202.311 248.82 208.545Z" fill="#06B9E6"/>
<path d="M649.783 111.875C677.98 137.348 671.941 162.413 672.504 196.435C672.621 203.486 673.569 212.287 668.356 217.814C665.364 220.931 661.207 222.752 656.823 222.871C652.988 222.969 647.902 221.257 645.182 218.496C639.914 213.148 640.508 207.665 640.232 201.553C639.665 188.916 641.923 162.358 638.849 151.32C637.362 145.883 634.438 140.917 630.372 136.911C625.195 131.829 619.814 129.641 612.897 127.729C613.935 126.717 615.472 126.432 616.886 126.221C630.458 124.199 638.876 119.78 649.783 111.875Z" fill="#06B9E6"/>
<rect x="60" y="104.964" width="32.9631" height="142.625" rx="16.4816" transform="rotate(-28.9666 60 104.964)" fill="#06B9E6"/>
<rect width="33.1218" height="142.334" rx="16.5609" transform="matrix(-0.874902 -0.484299 -0.484299 0.874902 210.797 105.041)" fill="#5466CD"/>
<path fill-rule="evenodd" clip-rule="evenodd" d="M150.062 199.173C154.492 207.175 151.596 217.253 143.594 221.683C135.592 226.112 125.514 223.216 121.084 215.214L119.397 212.167C118.156 208.018 118.519 203.393 120.782 199.305L135.458 172.791L150.062 199.173Z" fill="#208FE4"/>
</svg>
