<svg width="750" height="226" viewBox="0 0 750 226" fill="none" xmlns="http://www.w3.org/2000/svg">
<path fill-rule="evenodd" clip-rule="evenodd" d="M680.033 49.2438C716.37 47.0326 747.658 73.9015 749.875 109.225C752.097 144.549 724.408 174.921 688.066 177.027C651.8 179.128 620.635 152.283 618.422 117.034C616.205 81.7849 643.776 51.4507 680.033 49.2438ZM717.446 109.848C715.641 91.8575 699.126 78.7253 680.626 80.5641C662.245 82.3913 648.84 98.3166 650.635 116.193C652.435 134.069 668.759 147.172 687.155 145.506C705.673 143.829 719.254 127.839 717.446 109.848Z" fill="#06B9E6"/>
<path d="M370.793 49.2094C376.89 48.8454 381.754 49.1199 387.792 50.326C405.1 53.7278 420.304 63.6892 430.037 78.009C434.362 84.2852 437.453 91.2841 439.158 98.6526C442.712 114.719 439.774 134.461 440.867 151.026C441.393 158.986 441.429 168.435 433.727 173.186C429.865 175.601 425.155 176.37 420.694 175.313C407.725 172.224 408.482 160.379 408.522 150.27L408.64 126.204C408.672 120.132 409.03 113.849 407.988 107.863C405.313 92.5412 394.95 84.1526 380.113 80.6533C377.148 80.2431 374.138 80.192 371.16 80.5004C356.105 82.1842 344.335 93.3794 341.88 107.831C340.783 114.29 341.088 121.128 341.104 127.678L341.182 150.949C341.212 157.901 341.905 164.96 337.144 170.809C331.588 177.635 320.897 176.997 314.416 171.834C311.017 169.126 309.529 164.206 309.35 160.023C308.985 151.527 309.475 142.946 309.306 134.438C309.008 110.043 307.488 91.0162 325.259 71.048C337.068 57.7783 352.841 50.5639 370.793 49.2094Z" fill="#06B9E6"/>
<path d="M223.607 145.29C238.245 141.911 247.781 133.221 250.674 118.437C251.625 113.574 251.339 105.856 251.317 100.658L251.155 75.7908C251.11 68.2918 250.369 60.8611 256.04 54.8255C263.948 45.9446 280.833 50.7393 282.792 62.1165C284.02 69.2422 283.522 78.0412 283.516 85.4115L283.456 124.895L283.417 197.385C283.532 202.965 283.966 208.853 282.71 214.368C280.77 222.884 271.145 227.893 262.622 225.326C247.685 220.828 253.659 204.845 246.683 194.048C240.666 184.736 235.557 181.024 224.678 177.923C202.032 175.495 193.855 175.825 174.819 161.544C181.238 155.31 191.405 150.497 200.03 147.959C203.158 147.039 208.211 146.952 210.511 145.121C216.162 145.843 218.025 146.04 223.607 145.29Z" fill="#208FE4"/>
<path d="M223.607 145.29C238.245 141.911 247.781 133.221 250.674 118.437C251.625 113.574 251.339 105.856 251.316 100.658L251.155 75.7908C251.11 68.2918 250.369 60.8611 256.04 54.8255C263.947 45.9446 280.832 50.7393 282.792 62.1165C284.019 69.2422 283.522 78.0412 283.516 85.4115L283.455 124.895C280.535 138.481 270.847 152.752 260.526 162.044C253.787 155.967 245.727 151.443 236.943 148.807C233.396 147.746 225.618 146.905 223.607 145.29Z" fill="#06B9E6"/>
<path d="M224.678 177.923C227.21 176.196 233.308 175.516 236.726 174.444C246.188 171.478 252.801 168.016 260.468 162.055C271.587 171.5 277.01 181.579 281.418 194.994C281.802 196.162 282.119 197.135 283.417 197.386C283.532 202.966 283.966 208.854 282.71 214.369C280.77 222.885 271.145 227.893 262.622 225.326C247.685 220.829 253.66 204.846 246.684 194.049C240.667 184.737 235.557 181.025 224.678 177.923Z" fill="#5466CD"/>
<path d="M466.991 29.5026C466.914 21.4091 465.101 10.9212 471.375 4.84238C477.775 -1.3545 487.821 -1.76694 494.326 4.55156C499.476 9.54634 498.755 16.7959 500.151 23.17C503.547 36.8689 513.084 44.9029 526.611 48.4986C546.022 49.7496 560.302 51.6039 575.783 64.8745C564.876 72.7798 556.458 77.1987 542.886 79.2208C541.471 79.4319 539.934 79.7165 538.896 80.7283C535.22 80.1444 531.04 80.3806 527.35 80.6335C517.191 83.2131 509.304 87.3116 503.819 96.4036C501.783 99.7975 500.378 103.517 499.68 107.389C497.273 120.17 499.607 137.145 498.923 150.366C498.66 155.456 499.644 160.825 497.731 165.794C491.429 181.978 467.635 177.562 467.059 160.659C466.792 152.824 466.873 145.206 466.882 137.473C466.851 124.919 466.905 112.367 467.045 99.8138C466.542 77.5631 466.674 51.729 466.991 29.5026Z" fill="#208FE4"/>
<path d="M489.815 63.9294C497.431 70.9278 506.615 75.5414 516.824 77.9888C519.526 78.6361 525.287 79.3566 527.35 80.6336C517.191 83.2132 509.304 87.3117 503.818 96.4036C501.783 99.7975 500.378 103.518 499.68 107.389C497.272 120.17 499.607 137.145 498.922 150.366C498.66 155.456 499.643 160.825 497.73 165.794C491.429 181.978 467.634 177.562 467.059 160.659C466.791 152.824 466.873 145.206 466.882 137.473C466.85 124.919 466.905 112.367 467.045 99.8138C468.233 97.5537 470.799 90.8942 471.914 88.2754C476.719 77.0031 481.053 71.9951 489.815 63.9294Z" fill="#06B9E6"/>
<path d="M466.991 29.5026C466.914 21.4091 465.101 10.9212 471.375 4.84238C477.775 -1.3545 487.821 -1.76694 494.326 4.55156C499.476 9.54634 498.755 16.7959 500.151 23.17C503.547 36.8689 513.084 44.9029 526.611 48.4986C523.334 49.628 519.698 49.9594 516.276 50.7503C506.502 52.9708 497.44 57.498 489.893 63.9315C483.084 57.5606 479.176 53.3458 474.439 45.1845C472.172 41.2799 469.421 31.7953 466.991 29.5026Z" fill="#5466CD"/>
<path d="M51.1398 164.9L17.1051 102.188C11.6091 92.0466 5.35877 81.3229 0.665116 70.7989C-0.240613 68.7683 -0.107789 65.4168 0.390861 63.2417C1.34736 59.1485 3.93944 55.5929 7.59545 53.3588C18.9474 46.3392 29.3588 53.9043 33.9373 64.0164C35.606 67.7015 38.3331 72.1217 40.2933 75.7474L58.0815 108.638C61.1545 114.362 65.2507 122.636 68.6456 127.988L68.7077 128.47C72.2522 132.739 79.9835 148.817 83.2216 154.452C84.1155 156.007 85.7212 162.62 86.6654 163.953C84.0484 169.225 81.8557 173.802 76.226 176.706C72.2807 178.732 67.6542 179.098 63.4234 177.721C56.7809 175.592 54.0651 170.43 51.1398 164.9Z" fill="#06B9E6"/>
<path d="M68.7075 128.469C72.252 132.739 79.9834 148.816 83.2214 154.451C84.1154 156.006 85.721 162.619 86.6653 163.953C84.0483 169.224 81.8556 173.802 76.2258 176.705C72.2806 178.731 67.654 179.097 63.4232 177.72C56.7807 175.591 54.0649 170.429 51.1396 164.9C52.2163 163.227 53.4389 156.627 54.7612 154.103C59.2699 145.495 64.2587 137.098 68.7075 128.469Z" fill="#208FE4"/>
<path d="M174.82 161.545C165.181 153.871 156.163 139.936 153.54 128.058C152.684 124.129 152.14 120.141 151.913 116.131C151.374 107.64 151.477 97.7512 151.659 88.9338C151.844 80.0353 149.673 64.4583 154.767 56.917C158.41 51.5229 165.609 48.8618 172.019 50.7972C185.014 54.7203 184.199 65.4863 184.147 76.0769L184.024 101.605C184.015 106.601 183.796 113.846 184.61 118.593C185.234 122.173 186.467 125.626 188.26 128.81C193.204 137.59 200.86 142.373 210.511 145.122C208.211 146.953 203.158 147.04 200.03 147.96C191.405 150.498 181.239 155.311 174.82 161.545Z" fill="#06B9E6"/>
<path d="M575.783 64.8751C603.979 90.3482 597.941 115.413 598.503 149.435C598.621 156.486 599.569 165.287 594.355 170.814C591.363 173.931 587.207 175.752 582.823 175.871C578.988 175.969 573.902 174.257 571.182 171.496C565.914 166.148 566.508 160.665 566.232 154.553C565.665 141.916 567.922 115.358 564.849 104.32C563.362 98.8832 560.438 93.9171 556.372 89.9107C551.195 84.8291 545.814 82.6408 538.896 80.7288C539.935 79.7171 541.471 79.4324 542.886 79.2214C556.458 77.1992 564.876 72.7803 575.783 64.8751Z" fill="#06B9E6"/>
<path d="M68.6455 127.989C72.1397 122.389 75.5949 115.582 78.7985 109.713L96.5599 77.0663C101.027 68.8244 106.873 53.5813 116.871 51.1538C121.092 50.1293 126.193 50.9912 129.926 53.2041C133.634 55.4396 136.257 59.0357 137.199 63.1774C139.129 71.4163 131.716 81.7707 127.726 89.0119L113.781 114.499L95.3609 148.202C93.0535 152.405 89.1305 160.133 86.6654 163.954C85.7211 162.621 84.1154 156.008 83.2215 154.453C79.9835 148.818 72.2521 132.74 68.7076 128.471L68.6455 127.989Z" fill="#5466CD"/>
</svg>
